<svg width="41" height="58" viewBox="0 0 41 58" fill="none" xmlns="http://www.w3.org/2000/svg">
<g filter="url(#filter0_d_51_232)">
<path fill-rule="evenodd" clip-rule="evenodd" d="M21.3113 15.508C22.0047 16.439 23.2427 17.1216 25.2946 16.8469C28.8975 16.3644 31.6855 17.4456 33.3582 19.5167C34.9898 21.5368 35.3643 24.2642 34.6618 26.7102C33.9519 29.1819 32.1264 31.4474 29.2582 32.583C26.3942 33.7169 22.6671 33.6599 18.216 31.8717C14.3494 30.3183 12.1258 30.5701 10.9292 31.2703C9.76165 31.9533 9.07789 33.3612 9.00606 35.3528C8.93489 37.3258 9.49503 39.5733 10.458 41.3899C11.4548 43.2703 12.6763 44.3246 13.6957 44.5294L13.1048 47.4706C10.7649 47.0006 8.95819 44.9658 7.80743 42.795C6.62285 40.5604 5.91602 37.7947 6.00801 35.2447C6.09932 32.7132 7.00882 30.0882 9.41418 28.6809C11.7904 27.2906 15.1193 27.3945 19.3343 29.0879C23.2814 30.6736 26.189 30.5716 28.1539 29.7937C30.1147 29.0173 31.3125 27.5041 31.7784 25.882C32.2516 24.2342 31.9543 22.5531 31.0244 21.4016C30.1357 20.3013 28.4726 19.448 25.6928 19.8203C22.7058 20.2203 20.3325 19.216 18.9054 17.3001C17.5292 15.4527 17.1937 12.9741 17.7342 10.6548C18.28 8.31215 19.7384 6.01639 22.1216 4.45748C24.5164 2.89099 27.7478 2.12941 31.744 2.67672L31.3369 5.64897C27.9426 5.18409 25.4632 5.85646 23.7639 6.96807C22.0529 8.08726 21.0338 9.71375 20.6559 11.3356C20.2725 12.9807 20.5669 14.5087 21.3113 15.508Z" fill="black" stroke="black" stroke-width="3"/>
<path fill-rule="evenodd" clip-rule="evenodd" d="M31.5133 4.36099C31.0533 4.29799 30.6067 4.25418 30.1736 4.22835L30.1974 3.82906C30.6411 3.85552 31.0978 3.90034 31.5676 3.96469L31.5133 4.36099ZM27.487 4.30827C26.5394 4.42941 25.6762 4.64829 24.896 4.94509L24.7538 4.57123C25.5647 4.26274 26.4587 4.03647 27.4363 3.9115L27.487 4.30827ZM22.5651 6.22216C21.8251 6.77925 21.2089 7.4236 20.7144 8.11868L20.3885 7.8868C20.9064 7.15886 21.5512 6.48479 22.3245 5.90259L22.5651 6.22216ZM19.5383 10.492C19.2674 11.3689 19.1549 12.2601 19.1967 13.1098L18.7971 13.1294C18.753 12.2313 18.8721 11.2936 19.1561 10.3739L19.5383 10.492ZM19.8618 15.6393C20.2706 16.4114 20.8632 17.0591 21.6351 17.5108L21.4332 17.856C20.5922 17.364 19.9492 16.6592 19.5083 15.8264L19.8618 15.6393ZM25.4672 18.1353C26.0153 18.0619 26.5366 18.0289 27.031 18.0327L27.0279 18.4326C26.5535 18.429 26.051 18.4607 25.5203 18.5318C25.0279 18.5977 24.5606 18.6198 24.119 18.6016L24.1354 18.202C24.5522 18.2191 24.9962 18.1984 25.4672 18.1353ZM30.0887 18.633C31.1283 19.0833 31.9437 19.7615 32.5346 20.5791L32.2104 20.8134C31.6615 20.0538 30.9029 19.4217 29.9297 19L30.0887 18.633ZM33.6511 23.5C33.7732 24.5216 33.6663 25.5879 33.334 26.6067L32.9537 26.4827C33.2685 25.5175 33.3689 24.5097 33.2539 23.5475L33.6511 23.5ZM14.6936 29.5255C13.6425 29.376 12.732 29.3912 11.9491 29.5383L11.8752 29.1452C12.7085 28.9886 13.6637 28.9749 14.7499 29.1295L14.6936 29.5255ZM31.7737 29.3109C31.1084 30.0526 30.2725 30.6904 29.2687 31.1627L29.0984 30.8008C30.0534 30.3514 30.8461 29.746 31.4759 29.0438L31.7737 29.3109ZM18.7006 30.6654C18.2456 30.4826 17.8073 30.3217 17.3851 30.1815L17.5111 29.8019C17.9416 29.9448 18.3877 30.1086 18.8497 30.2942C19.3381 30.4904 19.8142 30.6632 20.2779 30.8138L20.1543 31.1942C19.6817 31.0407 19.1971 30.8648 18.7006 30.6654ZM9.53945 30.6826C8.8765 31.2772 8.40686 32.0545 8.10784 32.95L7.72843 32.8233C8.04527 31.8745 8.54882 31.0338 9.27238 30.3848L9.53945 30.6826ZM26.2686 31.9792C25.3197 32.08 24.2835 32.0628 23.161 31.9044L23.2169 31.5083C24.3096 31.6625 25.3128 31.6785 26.2263 31.5814L26.2686 31.9792ZM7.70006 35.6573C7.6972 36.555 7.80442 37.4873 8.00521 38.4081L7.61439 38.4933C7.40808 37.5472 7.2971 36.5858 7.30006 35.656L7.70006 35.6573ZM8.85382 41.0486C9.23519 41.9308 9.69749 42.748 10.2202 43.4495L9.8995 43.6885C9.3559 42.959 8.87869 42.1142 8.48666 41.2074L8.85382 41.0486ZM12.1993 45.3144C12.6017 45.5524 13.0168 45.719 13.4396 45.8039L13.3609 46.1961C12.8882 46.1011 12.4313 45.9163 11.9957 45.6587L12.1993 45.3144Z" fill="white" stroke="black" stroke-width="0.4" stroke-dasharray="3 3"/>
<path d="M17 46.5C17 48.1569 15.6569 49.5 14 49.5C12.3431 49.5 11 48.1569 11 46.5C11 44.8431 12.3431 43.5 14 43.5C15.6569 43.5 17 44.8431 17 46.5Z" fill="#C4C4C4" stroke="black"/>
<path d="M15 46.5C15 47.0523 14.5523 47.5 14 47.5C13.4477 47.5 13 47.0523 13 46.5C13 45.9477 13.4477 45.5 14 45.5C14.5523 45.5 15 45.9477 15 46.5Z" fill="white" stroke="black"/>
<path d="M36 3.5C36 5.15685 34.6569 6.5 33 6.5C31.3431 6.5 30 5.15685 30 3.5C30 1.84315 31.3431 0.5 33 0.5C34.6569 0.5 36 1.84315 36 3.5Z" fill="#C4C4C4" stroke="black"/>
<path d="M34 3.5C34 4.05228 33.5523 4.5 33 4.5C32.4477 4.5 32 4.05228 32 3.5C32 2.94772 32.4477 2.5 33 2.5C33.5523 2.5 34 2.94772 34 3.5Z" fill="white" stroke="black"/>
</g>
<defs>
<filter id="filter0_d_51_232" x="0.5" y="0" width="40" height="58" filterUnits="userSpaceOnUse" color-interpolation-filters="sRGB">
<feFlood flood-opacity="0" result="BackgroundImageFix"/>
<feColorMatrix in="SourceAlpha" type="matrix" values="0 0 0 0 0 0 0 0 0 0 0 0 0 0 0 0 0 0 127 0" result="hardAlpha"/>
<feOffset dy="4"/>
<feGaussianBlur stdDeviation="2"/>
<feColorMatrix type="matrix" values="0 0 0 0 0 0 0 0 0 0 0 0 0 0 0 0 0 0 0.25 0"/>
<feBlend mode="normal" in2="BackgroundImageFix" result="effect1_dropShadow_51_232"/>
<feBlend mode="normal" in="SourceGraphic" in2="effect1_dropShadow_51_232" result="shape"/>
</filter>
</defs>
</svg>
